<svg id="Layer_1" data-name="Layer 1" xmlns="http://www.w3.org/2000/svg" viewBox="0 0 299.55 237.13"><defs><style>.cls-1{fill:#231f20;}</style></defs><title>android-gendimen</title><path class="cls-1" d="M10.07,72H17a8.07,8.07,0,0,0,7.86-5.07,29,29,0,0,0,2.28-12.1V33.21a27.21,27.21,0,0,1,4.55-17.69A16.55,16.55,0,0,1,45,10.14h12.1V20.49H45.55a6.41,6.41,0,0,0-6,3.21A21.52,21.52,0,0,0,37.69,34v26.8a17.48,17.48,0,0,1-3.31,11,16,16,0,0,1-7.55,5.69h0A23.28,23.28,0,0,1,30.66,80a18.83,18.83,0,0,1,3.52,3.93,18.11,18.11,0,0,1,2.28,4.55,17.07,17.07,0,0,1,1,6v32.38a21.52,21.52,0,0,0,1.86,10.35,6.41,6.41,0,0,0,6,3.21H57.14v10.35H45a16.45,16.45,0,0,1-13.24-5.28,27.42,27.42,0,0,1-4.55-17.79V100.56a28.76,28.76,0,0,0-2.38-12.21,8.17,8.17,0,0,0-8-5.07H10.07V72Z"/><path class="cls-1" d="M94.49,83.91l-3.31,5.9-13.35-8a60.21,60.21,0,0,0,.52,7.86q0.52,3.93.93,7.76H72.14l1-15.52-6.52,4.24-6.52,4.14-3-5.9L71,77.49l-7.14-3.93-6.72-3,3.52-5.9,12.52,8.9a57.88,57.88,0,0,0-.52-7.76,61.11,61.11,0,0,1-.52-8.17h7.14L77.83,73.56l6.41-4.35L90.66,65l3.83,5.79L80.63,77.7Z"/><path class="cls-1" d="M186.67,82.25v9.1l-37.87,27.42-34.87-26.9V83h1.45l33.31,26,36.52-26.69h1.45Z"/><path class="cls-1" d="M130.18,34.87h8.48V75.53h-8.48V34.87Zm31.76,0h8.48V75.53h-8.48V34.87Z"/><path class="cls-1" d="M290.65,85.77h-7a8.07,8.07,0,0,0-7.86,5.07,29,29,0,0,0-2.28,12.1v21.62a27.21,27.21,0,0,1-4.55,17.69,16.55,16.55,0,0,1-13.24,5.38H243.37V137.29h11.28a6.41,6.41,0,0,0,6-3.21,21.52,21.52,0,0,0,1.86-10.35V96.84a17.48,17.48,0,0,1,3.31-11,16,16,0,0,1,7.55-5.69h0a23.28,23.28,0,0,1-3.83-2.48,18.83,18.83,0,0,1-3.1-4.14,18.11,18.11,0,0,1-2.38-4.35,17.07,17.07,0,0,1-1.14-6V30.94a21.52,21.52,0,0,0-1.86-10.35,6.41,6.41,0,0,0-6-3.21H243.37V7h11.79a16.45,16.45,0,0,1,13.24,5.28A27.42,27.42,0,0,1,273,30.11v27a28.76,28.76,0,0,0,2.38,12.21,8.17,8.17,0,0,0,8,5.07h6.93V85.77h0.41Z"/><path class="cls-1" d="M206.12,73.56l3.31-5.9,13.24,8.17a60.21,60.21,0,0,0-.52-7.86,59.44,59.44,0,0,1-.52-7.76h7.14l-1,15.52,6.52-4.24,6.52-4.14,2.59,6.21L229.5,80.49l7.35,3.41,6.52,3.21L239.85,93,227,84.53a57.88,57.88,0,0,0,.52,7.76,57.88,57.88,0,0,1,.52,7.76h-6.72l1.34-15.62-6.41,4.35L209.85,93l-3.72-6.1L220,80Z"/><path class="cls-1" d="M21.16,225.06q5.21,0,7.64-3.59t2.42-10.39v-0.73a10.59,10.59,0,0,1-9.12,5.43,12.7,12.7,0,0,1-6.63-1.26,10.71,10.71,0,0,1-4.06-3.84,15.8,15.8,0,0,1-2-5.76,43.93,43.93,0,0,1-.55-7.09,31.17,31.17,0,0,1,.73-7,16.08,16.08,0,0,1,2.32-5.55A11.69,11.69,0,0,1,16,181.61a13.07,13.07,0,0,1,6.12-1.44,9.27,9.27,0,0,1,8.69,4.92h0.15L31.37,181h5.72v28.46a42.71,42.71,0,0,1-.79,8.62,17.77,17.77,0,0,1-2.64,6.52,12.13,12.13,0,0,1-4.89,4.12,17.22,17.22,0,0,1-7.46,1.45,24,24,0,0,1-5.5-.69,16.23,16.23,0,0,1-4.85-1.92V222h0.87a11.09,11.09,0,0,0,1.74,1.05,19.72,19.72,0,0,0,2.35,1,23.52,23.52,0,0,0,2.64.72A12.81,12.81,0,0,0,21.16,225.06Zm9.92-28.82a16.94,16.94,0,0,0-.55-4.42,11,11,0,0,0-1.59-3.52,7.3,7.3,0,0,0-6.19-3.15,7.09,7.09,0,0,0-2.89.62,6.27,6.27,0,0,0-2.47,2.1,11.32,11.32,0,0,0-1.7,3.91,24.82,24.82,0,0,0-.62,6c0,1.44.08,2.94,0.22,4.49a15,15,0,0,0,1,4.27,7.91,7.91,0,0,0,2.28,3.18,6.17,6.17,0,0,0,4.09,1.23,7.29,7.29,0,0,0,4.09-1.08,8.44,8.44,0,0,0,2.57-2.65A11.39,11.39,0,0,0,30.68,204a12.84,12.84,0,0,0,.4-2.9v-4.85Z"/><path class="cls-1" d="M60.63,180.16a14.41,14.41,0,0,1,6.19,1.23,11.18,11.18,0,0,1,4.31,3.44,15.36,15.36,0,0,1,2.5,5.25,24.87,24.87,0,0,1,.83,6.59v2.68H51.14v0.36a27.12,27.12,0,0,0,.51,5.4,12.84,12.84,0,0,0,1.7,4.38,8.68,8.68,0,0,0,3.15,3,10.1,10.1,0,0,0,4.92,1.08,17.87,17.87,0,0,0,5.47-.9,17.62,17.62,0,0,0,5.25-2.79H73v5.72A18.57,18.57,0,0,1,67.83,218a24.06,24.06,0,0,1-6.63.79,18,18,0,0,1-7.46-1.4,13.13,13.13,0,0,1-5.11-4,17.34,17.34,0,0,1-2.94-6.19,34.07,34.07,0,0,1,0-15.89,16.27,16.27,0,0,1,2.9-6,13,13,0,0,1,4.93-3.81A17.23,17.23,0,0,1,60.63,180.16Zm-9.42,14.56H68.16V194.5Q67.65,185,60.41,185q-7.75,0-9.2,9.63v0.08Z"/><path class="cls-1" d="M109.65,217.89h-6v-22.3c0-3.92-.48-6.64-1.44-8.18s-2.71-2.32-5.22-2.32a6.43,6.43,0,0,0-3.29.91,8.48,8.48,0,0,0-2.68,2.5,12.72,12.72,0,0,0-1.78,3.84,17.62,17.62,0,0,0-.65,4.92v20.64h-6V181h5.57l0.29,4.92a10.66,10.66,0,0,1,3.87-4,10.82,10.82,0,0,1,5.9-1.67A12.34,12.34,0,0,1,104,181.4a8.7,8.7,0,0,1,3.48,3.22,13.47,13.47,0,0,1,1.74,4.88,38.18,38.18,0,0,1,.47,6.23v22.16Z"/><path class="cls-1" d="M130.36,180.23a11.44,11.44,0,0,1,5.4,1.34,9,9,0,0,1,3.87,3.73h0.08V166.47h6v51.42h-5.87l-0.22-4.05h-0.07a5.79,5.79,0,0,1-1.41,2,9.45,9.45,0,0,1-2.24,1.59,12.68,12.68,0,0,1-2.72,1,11.24,11.24,0,0,1-2.75.35,11.46,11.46,0,0,1-6.48-1.66,11.93,11.93,0,0,1-4-4.38,19.54,19.54,0,0,1-2-6.22,47.43,47.43,0,0,1-.55-7.28,35.3,35.3,0,0,1,.65-6.66,21.36,21.36,0,0,1,2.14-6.16,13,13,0,0,1,4-4.49A10.39,10.39,0,0,1,130.36,180.23ZM139.71,196a21.8,21.8,0,0,0-.36-4,10.41,10.41,0,0,0-1.3-3.51,7.33,7.33,0,0,0-2.5-2.51,7.53,7.53,0,0,0-3.95-.94,6.68,6.68,0,0,0-5.83,3.45q-2.21,3.44-2.21,11t1.84,10.93a6.26,6.26,0,0,0,5.91,3.33,7.1,7.1,0,0,0,3.26-.77,7.74,7.74,0,0,0,2.64-2.17,11.49,11.49,0,0,0,1.81-3.36,13,13,0,0,0,.69-4.34V196Z"/><path class="cls-1" d="M172.23,181V212.9h10.43v5H155v-5h11.07V186h-8.54v-5h14.71Zm-8.41-12.39a4.72,4.72,0,0,1,1.45-3.48,4.7,4.7,0,0,1,6.8,0,4.88,4.88,0,0,1,0,7,4.72,4.72,0,0,1-6.8,0A4.73,4.73,0,0,1,163.82,168.57Z"/><path class="cls-1" d="M206.63,186.1q1.8-6.09,6.73-6.09a7.46,7.46,0,0,1,3.66.8,5.58,5.58,0,0,1,2.24,2.51,13.7,13.7,0,0,1,1.16,4.37,52.73,52.73,0,0,1,.32,6.38v23.82h-5.58v-24c0-1.79,0-3.28-.1-4.5a14.42,14.42,0,0,0-.4-2.82,2.91,2.91,0,0,0-.8-1.45,2,2,0,0,0-1.3-.43,3.81,3.81,0,0,0-2.57.84,5.37,5.37,0,0,0-1.53,2.31,13.64,13.64,0,0,0-.72,3.44c-0.12,1.31-.18,2.69-0.18,4.13v22.52h-5.65v-24c0-1.79,0-3.26-.11-4.43a14.26,14.26,0,0,0-.4-2.79,2.73,2.73,0,0,0-.79-1.44,2.21,2.21,0,0,0-1.38-.39,3.43,3.43,0,0,0-2.42.9,6.4,6.4,0,0,0-1.56,2.39,14.39,14.39,0,0,0-.83,3.44,30.52,30.52,0,0,0-.25,4v22.38h-5.58V181h5.21l0.14,3.91a8.31,8.31,0,0,1,2.83-3.59,6.49,6.49,0,0,1,7.85.07A9.16,9.16,0,0,1,206.63,186.1Z"/><path class="cls-1" d="M241.68,180.16a14.45,14.45,0,0,1,6.19,1.23,11.2,11.2,0,0,1,4.3,3.44,15.37,15.37,0,0,1,2.51,5.25,25.29,25.29,0,0,1,.83,6.59v2.68H232.19v0.36a27.5,27.5,0,0,0,.51,5.4,12.94,12.94,0,0,0,1.7,4.38,8.72,8.72,0,0,0,3.15,3,10.15,10.15,0,0,0,4.93,1.08,17.76,17.76,0,0,0,10.72-3.69h0.87v5.72a18.73,18.73,0,0,1-5.18,2.47,24.06,24.06,0,0,1-6.63.79,18,18,0,0,1-7.46-1.4,13,13,0,0,1-5.1-4,17.18,17.18,0,0,1-2.94-6.19,34.07,34.07,0,0,1,0-15.89,16.19,16.19,0,0,1,2.9-6,13,13,0,0,1,4.92-3.81A17.24,17.24,0,0,1,241.68,180.16Zm-9.42,14.56h16.94V194.5q-0.5-9.49-7.75-9.49-7.74,0-9.19,9.63v0.08Z"/><path class="cls-1" d="M290.71,217.89h-6v-22.3c0-3.92-.48-6.64-1.45-8.18s-2.7-2.32-5.21-2.32a6.43,6.43,0,0,0-3.29.91,8.48,8.48,0,0,0-2.68,2.5,12.84,12.84,0,0,0-1.78,3.84,17.62,17.62,0,0,0-.65,4.92v20.64h-6V181h5.58l0.28,4.92a10.71,10.71,0,0,1,3.88-4,10.82,10.82,0,0,1,5.9-1.67A12.34,12.34,0,0,1,285,181.4a8.7,8.7,0,0,1,3.48,3.22,13.37,13.37,0,0,1,1.74,4.88,38.15,38.15,0,0,1,.47,6.23v22.16Z"/></svg>