<?xml version="1.0" encoding="utf-8"?>
<!-- Generator: Adobe Illustrator 19.0.1, SVG Export Plug-In . SVG Version: 6.00 Build 0)  -->
<svg version="1.1" id="Layer_1" xmlns="http://www.w3.org/2000/svg" xmlns:xlink="http://www.w3.org/1999/xlink" x="0px" y="0px"
	 viewBox="0 0 512 512" style="enable-background:new 0 0 512 512;" xml:space="preserve">
<style type="text/css">
	.st0{enable-background:new    ;}
</style>
<g class="st0">
	<path d="M79.3,216.5c0-2.8-2.4-5.7-10.9-5.9v-8.2c8.5-0.2,10.9-3.1,10.9-5.9c0-5.1-0.8-7.5-0.8-13.2c0-9,4.6-11.9,15.3-11.9h6.8
		v7.3h-3c-6.2,0-7.6,0.8-7.6,5.1c0,4.2,0.3,8,0.3,12.7c0,6.5-2.5,8.8-8.5,9.8v0.3c6,1,8.5,3.3,8.5,9.8c0,4.7-0.3,8.6-0.3,12.7
		c0,4.2,1.4,5.1,7.6,5.1h3v7.3h-6.8c-10.6,0-15.3-2.9-15.3-11.9C78.5,224,79.3,221.6,79.3,216.5z"/>
	<path d="M118.4,218.4l7.6-12.5l-12.2-5.5l2.1-6.7l13.1,3.2l1.1-14.2h7.2l1.1,14.2l13.1-3.2l2.1,6.7l-12.2,5.5l7.6,12.5l-6,4.1
		l-9.3-11.1l-9.3,11.1L118.4,218.4z"/>
	<path d="M212.3,187.6h38.5v9.8h-38.5V187.6z M212.3,207.2h38.5v9.8h-38.5V207.2z"/>
	<path d="M295.6,206.9l-32,20.4v-12.6l20.6-12.4V202l-20.6-12.4V177l32,20.4V206.9z"/>
	<path d="M363.1,218.4l7.6-12.5l-12.2-5.5l2.1-6.7l13.1,3.2l1.1-14.2h7.2l1.1,14.2l13.1-3.2l2.1,6.7l-12.2,5.5l7.6,12.5l-6,4.1
		l-9.3-11.1l-9.3,11.1L363.1,218.4z"/>
	<path d="M414.6,234.3c6.1,0,7.5-0.8,7.5-5.1c0-4.2-0.2-8-0.2-12.7c0-6.5,2.5-8.8,8.5-9.8v-0.3c-6-1-8.5-3.3-8.5-9.8
		c0-4.7,0.2-8.6,0.2-12.7c0-4.2-1.4-5.1-7.5-5.1h-3v-7.3h6.8c10.6,0,15.3,2.9,15.3,11.9c0,5.7-0.9,8.2-0.9,13.2
		c0,2.8,2.4,5.7,11,5.9v8.2c-8.6,0.2-11,3.1-11,5.9c0,5.1,0.9,7.5,0.9,13.2c0,9-4.6,11.9-15.3,11.9h-6.8v-7.3H414.6z"/>
</g>
<g class="st0">
	<path d="M70,326v-0.3c-2.3-1.5-4.1-3.6-4.1-7c0-2.8,2-5.7,4.9-7.7v-0.3c-3.1-2-5.5-5.7-5.5-10.4c0-10.1,8.6-14.8,18-14.8
		c2.4,0,4.9,0.3,6.9,1h16.5v10.1h-7.3c0.6,1,1.1,2.6,1.1,4.2c0,9.6-7.5,13.5-17.2,13.5c-1.5,0-3.2-0.2-5.1-0.6
		c-1,0.7-1.3,1.2-1.3,2.4c0,1.8,1.8,2.4,6.4,2.4h6.9c10.8,0,17,3.1,17,10.6c0,8.8-9.7,14.8-25,14.8c-10.1,0-18.4-2.8-18.4-10.1
		C63.8,330.5,65.9,327.9,70,326z M84.4,335.3c5.5,0,9.5-1.5,9.5-3.8c0-2.1-2.3-2.4-6.4-2.4h-4.1c-3.2,0-4.8-0.2-6.2-0.5
		c-1.4,1-2,1.8-2,2.9C75.2,334.1,78.9,335.3,84.4,335.3z M88.3,300.2c0-3.8-2.3-5.5-5-5.5s-4.9,1.8-4.9,5.5c0,3.9,2.2,5.7,4.9,5.7
		S88.3,304.1,88.3,300.2z"/>
	<path d="M134.6,285.4c12.9,0,19.4,8.8,19.4,19.7c0,2.4-0.4,4.9-0.6,5.9h-25.9c1,5.1,5.5,6.5,10.4,6.5c3.3,0,6.2-0.8,9.8-2.4
		l4.6,8.3c-4.9,3.1-11.3,4.7-16.3,4.7c-12.9,0-22.8-7.8-22.8-21.4C113.3,293.3,123.7,285.4,134.6,285.4z M141.3,301.8
		c0-3.3-1.6-5.9-6.4-5.9c-3.5,0-6.5,1.6-7.5,5.9H141.3z"/>
	<path d="M163.3,286.3h11.4l1,4.9h0.3c3.3-3.1,7.7-5.9,13.6-5.9c9.1,0,13,6.5,13,16.6v25.1h-14v-23.3c0-4.6-1.1-6.5-4.7-6.5
		c-2.6,0-4.4,1.1-6.5,3.1v26.8h-14V286.3z"/>
	<path d="M227.5,285.4c4.5,0,7.2,1.6,9.7,4.1l-0.5-5.9v-13.2h14v56.8h-11.4l-1-3.8h-0.3c-2.9,2.8-6.9,4.7-10.5,4.7
		c-10.4,0-17-8.2-17-21.4C210.5,293.3,219,285.4,227.5,285.4z M231.2,316.7c2.3,0,4-0.7,5.5-2.9v-15c-1.6-1.5-3.4-2-5.4-2
		c-3.4,0-6.5,2.6-6.5,9.8C224.8,313.9,227.2,316.7,231.2,316.7z"/>
	<path d="M262,286.3h29.5v40.8h-14v-29.9H262V286.3z M275.1,273.1c0-4.9,3.8-8.3,9-8.3s9,3.4,9,8.3s-3.8,8.2-9,8.2
		S275.1,278,275.1,273.1z"/>
	<path d="M307.1,286.3h10.5l1,5h0.3c1.4-3.2,3.8-6,8.6-6c3.3,0,6,2.3,6.9,6.5c1.1-3.4,4.2-6.5,8.7-6.5c5.7,0,9.1,5.2,9.1,13.4v28.4
		H339v-27.4c0-1.7-0.3-2.4-1.4-2.4s-2,1-2.7,3.1v26.8h-10.6v-27.4c0-1.7-0.6-2.4-1.6-2.4c-1,0-1.7,1-2.4,3.1v26.8h-13.2V286.3z"/>
	<path d="M379.3,285.4c12.9,0,19.4,8.8,19.4,19.7c0,2.4-0.4,4.9-0.6,5.9h-25.9c1,5.1,5.5,6.5,10.4,6.5c3.3,0,6.2-0.8,9.8-2.4
		l4.6,8.3c-4.9,3.1-11.3,4.7-16.3,4.7c-12.9,0-22.8-7.8-22.8-21.4C358,293.3,368.4,285.4,379.3,285.4z M386,301.8
		c0-3.3-1.6-5.9-6.4-5.9c-3.5,0-6.5,1.6-7.5,5.9H386z"/>
	<path d="M408,286.3h11.4l1,4.9h0.3c3.3-3.1,7.7-5.9,13.6-5.9c9.1,0,13,6.5,13,16.6v25.1h-14v-23.3c0-4.6-1.1-6.5-4.7-6.5
		c-2.6,0-4.4,1.1-6.5,3.1v26.8h-14V286.3z"/>
</g>
</svg>
